<svg width="188" height="32" viewBox="0 0 188 50" fill="none" xmlns="http://www.w3.org/2000/svg">
<path d="M13.4 19H9.8V13.3H4.8V19H1.2V5H4.8V10.5H9.8V5H13.4V19ZM24.8094 8.8C24.8094 8 24.4094 7.6 23.6094 7.6H20.2094C19.4094 7.6 19.0094 8 19.0094 8.8V15.2C19.0094 16 19.4094 16.4 20.2094 16.4H23.6094C24.4094 16.4 24.8094 16 24.8094 15.2V8.8ZM28.4094 15.2C28.4094 16.6 28.0894 17.62 27.4494 18.26C26.8227 18.8867 25.8094 19.2 24.4094 19.2H19.4094C18.0094 19.2 16.9894 18.8867 16.3494 18.26C15.7227 17.62 15.4094 16.6 15.4094 15.2V8.8C15.4094 7.4 15.7227 6.38667 16.3494 5.76C16.9894 5.12 18.0094 4.8 19.4094 4.8H24.4094C25.8094 4.8 26.8227 5.12 27.4494 5.76C28.0894 6.38667 28.4094 7.4 28.4094 8.8V15.2ZM38.2187 5C39.7254 5 40.8654 5.39333 41.6387 6.18C42.4254 6.95333 42.8188 8.09333 42.8188 9.6V14.4C42.8188 15.9067 42.4254 17.0533 41.6387 17.84C40.8654 18.6133 39.7254 19 38.2187 19H30.4187V5H38.2187ZM39.2188 9.6C39.2188 8.4 38.6187 7.8 37.4187 7.8H34.0187V16.2H37.4187C38.6187 16.2 39.2188 15.6 39.2188 14.4V9.6ZM48.4133 16.2H55.7133V19H44.8133V5H48.4133V16.2Z" transform="translate(-2 -8) scale(2)" fill="#E6AE29"/>
<path d="M63.918 19H60.318V7.8H56.118V5H68.118V7.8H63.918V19ZM70.6141 19H66.7141L72.0141 5H76.0141L81.3141 19H77.4141L76.5141 16.5H71.5141L70.6141 19ZM72.4141 13.9H75.6141L74.0141 9.2L72.4141 13.9ZM82.3133 5H90.3133C91.6199 5 92.5799 5.3 93.1933 5.9C93.8066 6.48667 94.1133 7.38667 94.1133 8.6C94.1133 9.4 93.9399 10.0533 93.5933 10.56C93.2466 11.0533 92.8199 11.4 92.3133 11.6C93.3933 11.8933 94.1266 12.6133 94.5133 13.76C94.6466 14.1733 94.7133 14.6533 94.7133 15.2C94.7133 16.5067 94.4066 17.4667 93.7933 18.08C93.1799 18.6933 92.2199 19 90.9133 19H82.3133V5ZM91.1133 14.6C91.1133 13.8 90.7133 13.4 89.9133 13.4H85.9133V16.2H89.9133C90.7133 16.2 91.1133 15.8 91.1133 15V14.6ZM90.5133 9C90.5133 8.2 90.1133 7.8 89.3133 7.8H85.9133V10.6H89.3133C90.1133 10.6 90.5133 10.2 90.5133 9.4V9Z" transform="translate(-2 -8) scale(2)" fill="#46454F"/>
</svg>
